<?xml version="1.0" encoding="utf-8"?>
<!-- Generator: Adobe Illustrator 23.0.1, SVG Export Plug-In . SVG Version: 6.00 Build 0)  -->
<svg version="1.1" id="Layer_1" xmlns="http://www.w3.org/2000/svg" xmlns:xlink="http://www.w3.org/1999/xlink" x="0px" y="0px"
	 viewBox="0 0 215.2 64.8" style="enable-background:new 0 0 215.2 64.8;" xml:space="preserve">
<style type="text/css">
	.st0{fill:#2B2B2B;}
	.st1{fill:none;}
	.st2{fill:#FFFFFF;}
	.st3{fill:none;stroke:#2D2D2D;stroke-miterlimit:10;}
	.st4{fill:#7229FF;}
</style>
<title>logo2</title>
<path class="st0" d="M84.3,14.2v23.1h-3.2l-12-18.2v18.2h-3.2V14.2c0-0.5,0.4-0.9,0.9-0.9l0,0h1.9c0.3,0,0.6,0.1,0.7,0.4l11.7,17.8
	V14.2c0-0.5,0.4-0.9,0.9-0.9l0,0h1.5C84,13.3,84.3,13.7,84.3,14.2z"/>
<path class="st0" d="M107.9,12.7c1.7,0,3.4,0.3,4.9,1s2.8,1.6,4,2.7c1.1,1.2,2,2.5,2.7,4s1,3.2,1,4.9c0,1.7-0.3,3.4-1,4.9
	s-1.6,2.8-2.7,4c-1.2,1.1-2.5,2-4,2.7s-3.2,1-4.9,1c-1.7,0-3.4-0.3-4.9-1s-2.8-1.6-4-2.7c-1.1-1.2-2-2.5-2.7-4s-1-3.2-1-4.9
	c0-1.7,0.3-3.4,1-4.9s1.6-2.8,2.7-4c1.2-1.1,2.5-2,4-2.7C104.5,13,106.2,12.7,107.9,12.7z M107.9,34.7c1.2,0,2.5-0.2,3.6-0.7
	s2.1-1.2,3-2c0.8-0.9,1.5-1.9,2-3c0.5-1.2,0.7-2.4,0.7-3.7c0-1.3-0.2-2.5-0.7-3.7c-0.5-1.1-1.2-2.1-2-3s-1.9-1.6-3-2
	c-1.1-0.5-2.4-0.8-3.6-0.8c-1.3,0-2.5,0.2-3.7,0.8c-1.1,0.5-2.1,1.2-3,2c-0.8,0.9-1.5,1.9-2,3c-0.5,1.2-0.7,2.4-0.7,3.7
	c0,1.3,0.2,2.5,0.7,3.7c0.5,1.1,1.1,2.1,2,3c0.8,0.9,1.9,1.6,3,2C105.4,34.5,106.6,34.7,107.9,34.7z"/>
<path class="st0" d="M153.7,14.2v23.1h-3.2v-18l-7.2,11.6c-0.3,0.4-0.8,0.5-1.2,0.2c-0.1-0.1-0.2-0.1-0.2-0.2l-7.2-11.6v18h-3.2
	V14.2c0-0.5,0.4-0.9,0.9-0.9h2.4l7.9,12.8l7.9-12.8h2.4C153.4,13.4,153.7,13.8,153.7,14.2z"/>
<path class="st0" d="M167.2,13.3h1.5c0.5,0,0.9,0.4,0.9,0.9v23.1h-3.2V14.2c-0.1-0.4,0.2-0.8,0.6-0.9
	C167.1,13.3,167.1,13.3,167.2,13.3z"/>
<path class="st0" d="M193.2,34.7c1.6,0,3.2-0.4,4.6-1.2c1.1-0.7,2.1-1.5,2.9-2.5c0.3-0.4,0.8-0.5,1.1-0.2c0,0,0,0,0.1,0l1.2,0.8
	c0.4,0.3,0.5,0.8,0.2,1.1c0,0,0,0,0,0.1c-0.4,0.6-0.9,1.1-1.4,1.6c-0.8,0.7-1.6,1.3-2.5,1.8s-1.9,0.9-2.9,1.2s-2.1,0.4-3.2,0.4
	c-1.7,0-3.4-0.3-4.9-1s-2.8-1.6-4-2.7c-1.1-1.2-2-2.5-2.7-4s-1-3.2-1-4.9c0-1.7,0.3-3.4,1-4.9s1.6-2.8,2.7-4c1.2-1.1,2.5-2,4-2.7
	s3.2-1,4.9-1c2.1,0,4.2,0.5,6.1,1.6c1.5,0.8,2.9,2,3.9,3.4c0.3,0.4,0.2,0.9-0.1,1.2c0,0,0,0-0.1,0l-1.2,0.8
	c-0.4,0.2-0.9,0.2-1.2-0.2c-0.8-1-1.8-1.9-2.9-2.5c-1.4-0.8-3-1.2-4.6-1.2c-1.2,0-2.5,0.2-3.6,0.7s-2.1,1.2-3,2
	c-0.9,0.9-1.5,1.9-2,3c-0.5,1.2-0.7,2.4-0.7,3.7c0,1.3,0.2,2.5,0.7,3.7c0.5,1.1,1.1,2.1,2,3c0.9,0.8,1.9,1.5,3,2
	C190.7,34.4,191.9,34.8,193.2,34.7z"/>
<path class="st0" d="M84.3,13.3v23.9h-3.2L69.1,19v18.2h-3.2V13.3h3.2L81,31.4V13.3H84.3z"/>
<path class="st0" d="M107.8,12.7c1.7,0,3.4,0.3,4.9,1s2.8,1.6,4,2.7c1.1,1.2,2,2.5,2.7,4s1,3.2,1,4.9c0,1.7-0.3,3.4-1,4.9
	s-1.6,2.8-2.7,4c-1.2,1.1-2.5,2-4,2.7s-3.2,1-4.9,1c-1.7,0-3.4-0.3-4.9-1s-2.8-1.6-4-2.7c-1.1-1.2-2-2.5-2.7-4s-1-3.2-1-4.9
	c0-1.7,0.3-3.4,1-4.9s1.6-2.8,2.7-4c1.2-1.1,2.5-2,4-2.7C104.4,13,106.1,12.7,107.8,12.7z M107.8,34.7c1.2,0,2.5-0.2,3.6-0.7
	s2.1-1.2,3-2c0.8-0.9,1.5-1.9,2-3c0.5-1.2,0.7-2.4,0.7-3.7c0-1.3-0.2-2.5-0.7-3.7c-0.5-1.1-1.2-2.1-2-3s-1.9-1.6-3-2
	c-1.1-0.5-2.4-0.8-3.6-0.8c-1.3,0-2.5,0.2-3.7,0.8c-1.1,0.5-2.1,1.2-3,2c-0.8,0.9-1.5,1.9-2,3c-0.5,1.2-0.7,2.4-0.7,3.7
	c0,1.3,0.2,2.5,0.7,3.7c0.5,1.1,1.1,2.1,2,3c0.8,0.9,1.9,1.6,3,2C105.3,34.5,106.5,34.7,107.8,34.7z"/>
<path class="st0" d="M153.7,13.3v23.9h-3.2v-18L142.6,32l-7.9-12.8v18h-3.2V13.3h3.2l7.9,12.8l7.9-12.8H153.7L153.7,13.3z"/>
<path class="st0" d="M166.3,13.3h3.2v23.9h-3.2V13.3z"/>
<path class="st0" d="M193.2,34.7c1.6,0,3.2-0.4,4.6-1.2c1.4-0.8,2.5-1.8,3.4-3.1l2.6,1.7c-0.6,0.9-1.2,1.7-1.9,2.4s-1.6,1.3-2.5,1.8
	s-1.9,0.9-2.9,1.2s-2.1,0.4-3.2,0.4c-1.7,0-3.4-0.3-4.9-1s-2.8-1.6-4-2.7c-1.1-1.2-2-2.5-2.7-4s-1-3.2-1-4.9c0-1.7,0.3-3.4,1-4.9
	s1.6-2.8,2.7-4c1.2-1.1,2.5-2,4-2.7s3.2-1,4.9-1c2.1,0,4.2,0.5,6.1,1.6c1.8,1,3.4,2.4,4.4,4.2l-2.6,1.7c-0.9-1.3-2-2.4-3.4-3.1
	c-1.4-0.8-3-1.2-4.6-1.2c-1.2,0-2.5,0.2-3.6,0.7s-2.1,1.2-3,2c-0.9,0.9-1.5,1.9-2,3c-0.5,1.2-0.7,2.4-0.7,3.7c0,1.3,0.2,2.5,0.7,3.7
	c0.5,1.1,1.1,2.1,2,3c0.9,0.8,1.9,1.5,3,2C190.7,34.5,192,34.7,193.2,34.7z"/>
<path class="st1" d="M17.6,35.3c9,0,9.8-9.8,9.8-9.8s0.7-9.8,9.8-9.8s9.8,9.8,9.8,9.8c0-10.9-8.8-19.7-19.6-19.7S7.7,14.6,7.7,25.5
	l0,0C7.7,25.5,8.6,35.3,17.6,35.3z"/>
<path class="st2" d="M47.1,25.5c0,10.9-8.8,19.7-19.7,19.7S7.7,36.4,7.7,25.5c0,0,0.9,9.8,9.8,9.8s9.8-9.8,9.8-9.8s0.7-9.8,9.8-9.8
	S47.1,25.5,47.1,25.5z"/>
<circle class="st3" cx="27.4" cy="25.5" r="19.7"/>
<path class="st0" d="M17.6,35.3c9,0,9.8-9.8,9.8-9.8s0.7-9.8,9.8-9.8s9.8,9.8,9.8,9.8c0-10.9-8.8-19.7-19.6-19.7S7.7,14.6,7.7,25.5
	l0,0C7.7,25.5,8.6,35.3,17.6,35.3z"/>
<path class="st4" d="M47.1,25.5c0,10.9-8.8,19.7-19.7,19.7S7.7,36.4,7.7,25.5c0,0,0.9,9.8,9.8,9.8s9.8-9.8,9.8-9.8s0.7-9.8,9.8-9.8
	S47.1,25.5,47.1,25.5z"/>
<path class="st2" d="M17.6,36.6c-8,0-10.8-7.2-11.1-11l2.6-0.2c0,0.3,0.9,8.7,8.6,8.7s8.5-8.3,8.6-8.7c0.3-3.8,3-11,11.1-11
	s10.8,7.2,11.1,11l-2.6,0.2c0-0.3-0.8-8.7-8.6-8.7s-8.5,8.3-8.6,8.7C28.3,29.4,25.6,36.6,17.6,36.6z"/>
<path class="st2" d="M27.4,46.4c-11.6,0.1-21-9.3-21.1-20.9c-0.1-11.6,9.3-21,20.9-21.1c11.6-0.1,21,9.3,21.1,20.9v0.1
	C48.3,36.9,38.9,46.3,27.4,46.4z M27.4,7.1C17.2,7.1,9,15.3,9,25.5s8.2,18.4,18.4,18.4s18.4-8.2,18.4-18.4S37.5,7.1,27.4,7.1z"/>
<g>
	<path d="M121.1,46.5c0.3,0.2,0.6,0.4,0.8,0.7s0.3,0.6,0.3,1c0,0.3-0.1,0.5-0.2,0.8c-0.1,0.2-0.2,0.5-0.4,0.6
		c-0.2,0.2-0.4,0.3-0.6,0.4c-0.2,0.1-0.5,0.2-0.8,0.2h-3v-7h2.4c0.3,0,0.5,0.1,0.8,0.2s0.5,0.2,0.6,0.4s0.3,0.4,0.4,0.6
		s0.2,0.5,0.2,0.8c0,0.3,0,0.5-0.1,0.7C121.3,46.2,121.2,46.4,121.1,46.5z M120.6,45.2c0-0.3-0.1-0.5-0.3-0.8
		c-0.2-0.2-0.4-0.3-0.7-0.3h-1.5v2.1h1.5c0.3,0,0.5-0.1,0.7-0.3C120.5,45.8,120.6,45.5,120.6,45.2z M120.1,49.3c0.1,0,0.3,0,0.4-0.1
		c0.1-0.1,0.2-0.1,0.3-0.2c0.1-0.1,0.2-0.2,0.2-0.3c0.1-0.1,0.1-0.3,0.1-0.4c0-0.1,0-0.3-0.1-0.4c-0.1-0.1-0.1-0.2-0.2-0.3
		c-0.1-0.1-0.2-0.2-0.3-0.2c-0.1-0.1-0.3-0.1-0.4-0.1h-2v2.1H120.1z"/>
	<path d="M124.9,44.1c0,0.2-0.1,0.3-0.2,0.4c-0.1,0.1-0.2,0.2-0.4,0.2s-0.3-0.1-0.4-0.2c-0.1-0.1-0.2-0.2-0.2-0.4s0.1-0.3,0.2-0.4
		c0.1-0.1,0.2-0.2,0.4-0.2s0.3,0.1,0.4,0.2C124.8,43.8,124.9,43.9,124.9,44.1z M124.8,50.3h-0.9v-4.8h0.9V50.3z"/>
	<path d="M129.1,50.3c0,0-0.1,0-0.2,0c-0.1,0-0.2,0-0.3,0.1s-0.3,0-0.4,0c-0.2,0-0.3-0.1-0.5-0.2c-0.4-0.3-0.7-0.9-0.7-1.7v-2.2
		h-0.6v-0.8h0.6v-2.2h0.8v2.2h1v0.8h-1v2.2c0,0.5,0.1,0.9,0.3,1c0.1,0,0.1,0.1,0.2,0.1c0.1,0,0.1,0,0.2,0c0.1,0,0.1,0,0.2,0
		L129.1,50.3z"/>
	<path d="M132.8,46.1c-0.2,0-0.5,0-0.7,0.1c-0.2,0.1-0.4,0.2-0.5,0.4s-0.3,0.3-0.4,0.5c-0.1,0.2-0.1,0.4-0.1,0.7s0,0.5,0.1,0.7
		c0.1,0.2,0.2,0.4,0.4,0.6s0.3,0.3,0.5,0.4c0.2,0.1,0.4,0.1,0.7,0.1c0.3,0,0.6-0.1,0.8-0.2s0.5-0.3,0.6-0.6l0.7,0.5
		c-0.2,0.4-0.5,0.6-0.9,0.9c-0.4,0.2-0.8,0.3-1.2,0.3c-0.4,0-0.7-0.1-1-0.2c-0.3-0.1-0.6-0.3-0.8-0.6c-0.2-0.2-0.4-0.5-0.6-0.8
		c-0.1-0.3-0.2-0.6-0.2-1c0-0.4,0.1-0.7,0.2-1s0.3-0.6,0.6-0.8c0.2-0.2,0.5-0.4,0.8-0.6c0.3-0.1,0.7-0.2,1-0.2
		c0.5,0,0.9,0.1,1.2,0.3c0.4,0.2,0.7,0.5,0.9,0.9l-0.7,0.5c-0.2-0.2-0.4-0.4-0.6-0.6C133.4,46.2,133.1,46.1,132.8,46.1z"/>
	<path d="M138.7,50.4c-0.4,0-0.7-0.1-1-0.2c-0.3-0.1-0.6-0.3-0.8-0.6c-0.2-0.2-0.4-0.5-0.6-0.8s-0.2-0.7-0.2-1c0-0.4,0.1-0.7,0.2-1
		c0.1-0.3,0.3-0.6,0.6-0.8c0.2-0.2,0.5-0.4,0.8-0.6c0.3-0.1,0.7-0.2,1-0.2c0.4,0,0.7,0.1,1,0.2c0.3,0.1,0.6,0.3,0.8,0.6
		s0.4,0.5,0.6,0.8c0.1,0.3,0.2,0.6,0.2,1c0,0.4-0.1,0.7-0.2,1c-0.1,0.3-0.3,0.6-0.6,0.8s-0.5,0.4-0.8,0.6
		C139.4,50.4,139.1,50.4,138.7,50.4z M138.7,46.1c-0.2,0-0.5,0-0.7,0.1c-0.2,0.1-0.4,0.2-0.5,0.4c-0.2,0.2-0.3,0.3-0.4,0.6
		c-0.1,0.2-0.1,0.4-0.1,0.7c0,0.2,0,0.5,0.1,0.7c0.1,0.2,0.2,0.4,0.4,0.6c0.2,0.2,0.3,0.3,0.5,0.4c0.2,0.1,0.4,0.1,0.7,0.1
		c0.2,0,0.5,0,0.7-0.1s0.4-0.2,0.5-0.4c0.2-0.2,0.3-0.3,0.4-0.6c0.1-0.2,0.1-0.4,0.1-0.7c0-0.2,0-0.5-0.1-0.7
		c-0.1-0.2-0.2-0.4-0.4-0.6c-0.2-0.2-0.3-0.3-0.5-0.4C139.2,46.2,139,46.1,138.7,46.1z"/>
	<path d="M144,44.1c0,0.2-0.1,0.3-0.2,0.4c-0.1,0.1-0.2,0.2-0.4,0.2s-0.3-0.1-0.4-0.2c-0.1-0.1-0.2-0.2-0.2-0.4s0.1-0.3,0.2-0.4
		c0.1-0.1,0.2-0.2,0.4-0.2s0.3,0.1,0.4,0.2C143.9,43.8,144,43.9,144,44.1z M143.9,50.3H143v-4.8h0.8V50.3z"/>
	<path d="M150.3,46.9c0,0.1,0,0.1,0,0.2s0,0.1,0,0.2v0.1v2.9h-0.8v-2.8c0-0.1,0-0.2,0-0.4s-0.1-0.3-0.2-0.4
		c-0.1-0.1-0.2-0.3-0.4-0.4c-0.2-0.1-0.4-0.2-0.6-0.2c-0.3,0-0.6,0-0.8,0.1c-0.2,0.1-0.3,0.2-0.4,0.4s-0.2,0.3-0.2,0.4
		s-0.1,0.2-0.1,0.3v2.9H146v-4.8h0.9v0.4c0,0,0,0,0.1-0.1s0.2-0.1,0.3-0.2s0.3-0.1,0.5-0.2s0.4-0.1,0.6-0.1c0.4,0,0.7,0.1,0.9,0.2
		c0.2,0.1,0.4,0.2,0.6,0.4c0.2,0.2,0.3,0.3,0.3,0.5C150.2,46.6,150.3,46.7,150.3,46.9z"/>
	<path d="M157,46.1c0.5,0.1,0.9,0.3,1.2,0.5c0.3,0.2,0.6,0.4,0.7,0.6c0.2,0.2,0.3,0.4,0.4,0.6c0.1,0.2,0.1,0.4,0.1,0.6
		c0,0.3-0.1,0.6-0.2,0.8c-0.1,0.2-0.3,0.5-0.5,0.7c-0.2,0.2-0.5,0.3-0.8,0.4c-0.3,0.1-0.6,0.2-1,0.2c-0.3,0-0.6,0-0.9-0.1
		c-0.3-0.1-0.6-0.2-0.8-0.4c-0.2-0.2-0.4-0.4-0.6-0.6c-0.1-0.2-0.2-0.5-0.3-0.7l0.8-0.2c0.1,0.3,0.3,0.6,0.6,0.8
		c0.3,0.2,0.7,0.3,1.1,0.3c0.2,0,0.4,0,0.6-0.1c0.2-0.1,0.4-0.1,0.5-0.2s0.3-0.2,0.3-0.4s0.1-0.3,0.1-0.4c0-0.6-0.6-1.1-1.7-1.4
		c-0.3-0.1-0.5-0.1-0.8-0.2s-0.5-0.2-0.8-0.3c-0.2-0.1-0.4-0.3-0.5-0.5c-0.1-0.2-0.2-0.5-0.2-0.8c0-0.3,0.1-0.6,0.2-0.8
		s0.3-0.5,0.5-0.6c0.2-0.2,0.5-0.3,0.8-0.4c0.3-0.1,0.6-0.1,1-0.1c0.3,0,0.6,0,0.9,0.1c0.3,0.1,0.5,0.2,0.7,0.4
		c0.2,0.2,0.4,0.4,0.5,0.6c0.1,0.2,0.2,0.5,0.2,0.7l-0.8,0.2c-0.1-0.3-0.2-0.6-0.5-0.8c-0.3-0.2-0.6-0.3-1-0.3c-0.4,0-0.8,0.1-1,0.3
		s-0.4,0.5-0.4,0.8c0,0.1,0,0.2,0.1,0.3c0,0.1,0.1,0.2,0.2,0.3c0.1,0.1,0.3,0.2,0.5,0.2C156.4,46,156.7,46,157,46.1z"/>
	<path d="M162,44.1c0,0.2-0.1,0.3-0.2,0.4c-0.1,0.1-0.2,0.2-0.4,0.2s-0.3-0.1-0.4-0.2c-0.1-0.1-0.2-0.2-0.2-0.4s0.1-0.3,0.2-0.4
		c0.1-0.1,0.2-0.2,0.4-0.2s0.3,0.1,0.4,0.2C162,43.8,162,43.9,162,44.1z M161.9,50.3H161v-4.8h0.8V50.3z"/>
	<path d="M168.5,43.3v7h-0.8v-0.5c-0.2,0.2-0.5,0.4-0.8,0.5c-0.3,0.1-0.6,0.2-0.9,0.2s-0.6-0.1-0.9-0.2c-0.3-0.1-0.5-0.3-0.8-0.6
		s-0.4-0.5-0.5-0.8c-0.1-0.3-0.2-0.6-0.2-1c0-0.4,0.1-0.7,0.2-1c0.1-0.3,0.3-0.6,0.5-0.8s0.5-0.4,0.8-0.6c0.3-0.1,0.6-0.2,0.9-0.2
		s0.6,0.1,0.9,0.2c0.3,0.1,0.5,0.3,0.8,0.5v-2.8H168.5z M166.1,49.6c0.2,0,0.4,0,0.6-0.1c0.2-0.1,0.4-0.2,0.5-0.4
		c0.1-0.2,0.3-0.3,0.4-0.6c0.1-0.2,0.1-0.4,0.1-0.7c0-0.2,0-0.5-0.1-0.7c-0.1-0.2-0.2-0.4-0.4-0.6s-0.3-0.3-0.5-0.4
		c-0.2-0.1-0.4-0.1-0.6-0.1s-0.4,0-0.6,0.1c-0.2,0.1-0.4,0.2-0.5,0.4s-0.3,0.3-0.3,0.6c-0.1,0.2-0.1,0.4-0.1,0.7
		c0,0.2,0,0.5,0.1,0.7c0.1,0.2,0.2,0.4,0.3,0.6c0.1,0.2,0.3,0.3,0.5,0.4C165.6,49.6,165.8,49.6,166.1,49.6z"/>
	<path d="M171.1,48.1c0,0.2,0.1,0.4,0.2,0.6c0.1,0.2,0.2,0.3,0.3,0.5c0.1,0.1,0.3,0.2,0.5,0.3c0.2,0.1,0.4,0.1,0.6,0.1
		c0.3,0,0.6-0.1,0.8-0.2s0.5-0.3,0.6-0.6l0.7,0.5c-0.2,0.4-0.5,0.6-0.9,0.9c-0.4,0.2-0.8,0.3-1.2,0.3c-0.3,0-0.6-0.1-0.9-0.2
		s-0.5-0.3-0.7-0.5c-0.2-0.2-0.4-0.5-0.5-0.7c-0.1-0.3-0.2-0.6-0.2-0.9c0,0,0-0.1,0-0.1c0,0,0-0.1,0-0.1c0-0.2,0-0.4,0.1-0.6
		c0.1-0.3,0.2-0.5,0.3-0.8c0.1-0.2,0.3-0.5,0.5-0.6s0.4-0.3,0.7-0.4s0.5-0.2,0.8-0.2s0.5,0.1,0.8,0.2c0.3,0.1,0.5,0.2,0.7,0.4
		s0.4,0.4,0.5,0.6c0.1,0.2,0.2,0.5,0.3,0.8c0,0.2,0.1,0.4,0.1,0.6c0,0,0,0.1,0,0.1s0,0.1,0,0.1H171.1z M174.1,47.3
		c-0.1-0.3-0.3-0.6-0.6-0.8c-0.3-0.2-0.6-0.3-0.9-0.3s-0.6,0.1-0.9,0.3c-0.3,0.2-0.5,0.5-0.6,0.8H174.1z"/>
	<path d="M178.9,46.1c-0.2,0-0.5,0-0.7,0.1c-0.2,0.1-0.4,0.2-0.5,0.4s-0.3,0.3-0.4,0.5c-0.1,0.2-0.1,0.4-0.1,0.7s0,0.5,0.1,0.7
		c0.1,0.2,0.2,0.4,0.4,0.6s0.3,0.3,0.5,0.4c0.2,0.1,0.4,0.1,0.7,0.1c0.3,0,0.6-0.1,0.8-0.2s0.5-0.3,0.6-0.6l0.7,0.5
		c-0.2,0.4-0.5,0.6-0.9,0.9c-0.4,0.2-0.8,0.3-1.2,0.3c-0.4,0-0.7-0.1-1-0.2c-0.3-0.1-0.6-0.3-0.8-0.6s-0.4-0.5-0.6-0.8
		c-0.1-0.3-0.2-0.6-0.2-1c0-0.4,0.1-0.7,0.2-1c0.1-0.3,0.3-0.6,0.6-0.8c0.2-0.2,0.5-0.4,0.8-0.6c0.3-0.1,0.6-0.2,1-0.2
		c0.5,0,0.9,0.1,1.2,0.3c0.4,0.2,0.7,0.5,0.9,0.9l-0.7,0.5c-0.2-0.2-0.4-0.4-0.6-0.6C179.5,46.2,179.2,46.1,178.9,46.1z"/>
	<path d="M187.1,46.9c0,0.1,0,0.1,0,0.2s0,0.1,0,0.2v0.1v2.9h-0.8v-2.8c0-0.1,0-0.2,0-0.4c0-0.2-0.1-0.3-0.2-0.4s-0.2-0.3-0.4-0.4
		c-0.2-0.1-0.4-0.1-0.6-0.1c-0.3,0-0.6,0-0.8,0.1s-0.3,0.2-0.4,0.4c-0.1,0.1-0.2,0.3-0.2,0.4c0,0.1-0.1,0.2-0.1,0.3v2.9h-0.9v-7h0.9
		v2.6c0,0,0,0,0.1-0.1c0.1-0.1,0.2-0.1,0.3-0.2c0.1-0.1,0.3-0.1,0.5-0.2c0.2-0.1,0.4-0.1,0.6-0.1c0.4,0,0.7,0.1,0.9,0.2
		c0.2,0.1,0.4,0.2,0.6,0.4c0.1,0.2,0.3,0.3,0.3,0.5C187,46.6,187.1,46.7,187.1,46.9z"/>
	<path d="M193.7,45.5v4.8h-0.9v-0.6c-0.2,0.2-0.5,0.4-0.8,0.5c-0.3,0.1-0.6,0.2-0.9,0.2s-0.6-0.1-0.9-0.2c-0.3-0.1-0.5-0.3-0.8-0.6
		c-0.2-0.2-0.4-0.5-0.5-0.8s-0.2-0.7-0.2-1c0-0.4,0.1-0.7,0.2-1c0.1-0.3,0.3-0.6,0.5-0.8c0.2-0.2,0.5-0.4,0.8-0.6
		c0.3-0.1,0.6-0.2,0.9-0.2s0.6,0.1,0.9,0.2c0.3,0.1,0.5,0.3,0.8,0.5v-0.6H193.7z M191.2,49.6c0.2,0,0.4,0,0.6-0.1
		c0.2-0.1,0.4-0.2,0.5-0.4c0.1-0.2,0.3-0.3,0.3-0.6c0.1-0.2,0.1-0.4,0.1-0.7c0-0.2,0-0.5-0.1-0.7c-0.1-0.2-0.2-0.4-0.3-0.6
		c-0.1-0.2-0.3-0.3-0.5-0.4c-0.2-0.1-0.4-0.1-0.6-0.1s-0.4,0-0.6,0.1c-0.2,0.1-0.4,0.2-0.5,0.4c-0.1,0.2-0.3,0.3-0.4,0.6
		c-0.1,0.2-0.1,0.4-0.1,0.7c0,0.2,0,0.5,0.1,0.7c0.1,0.2,0.2,0.4,0.4,0.6c0.1,0.2,0.3,0.3,0.5,0.4C190.8,49.6,191,49.6,191.2,49.6z"
		/>
	<path d="M196.8,44.1c0,0.2-0.1,0.3-0.2,0.4c-0.1,0.1-0.2,0.2-0.4,0.2c-0.2,0-0.3-0.1-0.4-0.2c-0.1-0.1-0.2-0.2-0.2-0.4
		s0.1-0.3,0.2-0.4c0.1-0.1,0.2-0.2,0.4-0.2c0.2,0,0.3,0.1,0.4,0.2C196.7,43.8,196.8,43.9,196.8,44.1z M196.6,50.3h-0.9v-4.8h0.9
		V50.3z"/>
	<path d="M203.1,46.9c0,0.1,0,0.1,0,0.2c0,0.1,0,0.1,0,0.2v0.1v2.9h-0.9v-2.8c0-0.1,0-0.2,0-0.4c0-0.2-0.1-0.3-0.2-0.4
		c-0.1-0.1-0.2-0.3-0.4-0.4c-0.2-0.1-0.4-0.2-0.6-0.2c-0.3,0-0.6,0-0.8,0.1c-0.2,0.1-0.3,0.2-0.4,0.4s-0.2,0.3-0.2,0.4
		s-0.1,0.2-0.1,0.3v2.9h-0.9v-4.8h0.9v0.4c0,0,0,0,0.1-0.1s0.2-0.1,0.3-0.2c0.1-0.1,0.3-0.1,0.5-0.2s0.4-0.1,0.6-0.1
		c0.4,0,0.7,0.1,0.9,0.2c0.2,0.1,0.4,0.2,0.6,0.4c0.2,0.2,0.3,0.3,0.3,0.5S203,46.7,203.1,46.9z"/>
</g>
</svg>
