<svg id="Layer_1" data-name="Layer 1" xmlns="http://www.w3.org/2000/svg" viewBox="0 0 420.45 101.43"><defs><style>.cls-1{fill:#fff;}.cls-2{fill:#6300ff;}.cls-3{stroke:#000;stroke-linecap:round;stroke-linejoin:round;stroke-width:2px;}</style></defs><path class="cls-1" d="M73.87,27A22.53,22.53,0,0,0,51.34,49.56a22.54,22.54,0,0,1-45.07,0,45.07,45.07,0,0,1,90.13,0A22.53,22.53,0,0,0,73.87,27Z"/><path d="M28.8,76.59a27.06,27.06,0,0,1-27-27,49.57,49.57,0,0,1,99.13,0h-9a18,18,0,0,0-36.06,0A27.06,27.06,0,0,1,28.8,76.59ZM51.34,9A40.61,40.61,0,0,0,10.77,49.56a18,18,0,0,0,36.07,0,27.06,27.06,0,0,1,27-27,26.78,26.78,0,0,1,9,1.54A40.48,40.48,0,0,0,51.34,9Z"/><path class="cls-2" d="M51.34,94.44A45.06,45.06,0,0,1,6.27,49.38a22.54,22.54,0,0,0,45.07,0,22.53,22.53,0,1,1,45.06,0A45.06,45.06,0,0,1,51.34,94.44Z"/><path d="M51.34,98.94A49.62,49.62,0,0,1,1.77,49.38h9a18,18,0,0,0,36.07,0,27,27,0,1,1,54.06,0A49.62,49.62,0,0,1,51.34,98.94ZM19.81,74.87A40.55,40.55,0,0,0,91.9,49.38a18,18,0,1,0-36.06,0,27.07,27.07,0,0,1-27,27A26.78,26.78,0,0,1,19.81,74.87Z"/><path class="cls-3" d="M192,22.31,181.61,80.89H167.34L149.9,44.76l-6.42,36.13H129.21l10.34-58.58h14.27l17.44,36.3,6.43-36.3Z"/><path class="cls-3" d="M219.83,81.48c-15,0-24.86-10-24.86-24.62,0-20.78,14.35-35.38,34.63-35.38,15.27,0,25,9.85,25,24.37C254.63,66.63,240.36,81.48,219.83,81.48ZM222,68.29c11.35,0,18.45-9.76,18.45-20.86,0-7.93-4.59-12.85-12.69-12.85-11.43,0-18.52,9.6-18.52,20.78C209.24,63.29,213.74,68.29,222,68.29Z"/><path class="cls-3" d="M267.9,22.31h16.86l9.35,40.56,23.36-40.56h16.77L323.9,80.89H309.63l6.26-35.13L296.53,80.89H285L278,45.6l-6.18,35.29H257.56Z"/><path class="cls-3" d="M344.51,22.31h14.27L348.43,80.89H334.16Z"/><path class="cls-3" d="M396.25,21.65c13.94,0,23.12,7.84,24.2,20.52H404.76c-1.5-4.84-5.5-7.34-11-7.34-8.76,0-15.86,6.51-17.61,16.69s3,16.77,11.77,16.77a16.13,16.13,0,0,0,13.6-7.42H417.2a33.76,33.76,0,0,1-31.46,20.44c-17.28,0-27.21-12.26-24.12-29.79S379,21.65,396.25,21.65Z"/></svg>